<svg xmlns="http://www.w3.org/2000/svg" version="1.1" xmlns:xlink="http://www.w3.org/1999/xlink" xmlns:svgjs="http://svgjs.dev/svgjs" viewBox="0 0 1920 1080" style="overflow: hidden; height: 85vh;" class="overflow-hidden rounded-md drop-shadow-lg transition duration-300"><rect width="1920" height="1080" fill="#dcdcdc"/><g clip-path="url(&quot;#SvgjsClipPath1417&quot;)"><g transform="matrix(1.14842396496776,0.060186349679385395,-0.060186349679385395,1.14842396496776,-105.80115283946066,-136.23071597965463)"><path d="M0,-1080C-0.9357870210053439,-966.9949800043074,-7.766271512816877,-623.8579198596271,-5.614722126032063,-401.96988002584453C-3.4631727392472507,-180.08184019206195,20.24108333803148,33.44334162363572,12.909296320708876,251.3282390026955C5.577509303386273,469.2131363817553,-39.264107647990926,700.5844381538172,-49.60544422996768,905.3395042485141C-59.946780811944436,1110.094570343211,-57.40629720947962,1270.7485529456292,-49.13872317115167,1479.858635570877C-40.87114913282372,1688.9687181961247,-8.189787195191945,2046.6431059284796,0,2160L 1920 2160 L 1920 -1080 Z" fill="url(&quot;#SvgjsLinearGradient1413&quot;)"/><path d="M480,-1080C486.1039799946039,-965.2904995010439,519.0826221718717,-601.8755878571651,516.6238799676232,-391.7429970062634C514.1651377633748,-181.61040615536174,468.76783874541934,-30.20850965192784,465.2475467745097,180.79554510540984C461.7272548036001,391.7995998627475,483.7548894227115,655.9479415162705,495.50212814216536,874.2813315377628C507.2493668616192,1092.614721559255,538.3146671149269,1276.5094404906574,535.7309790912327,1490.7958852343636C533.1472910675385,1705.0823299780698,489.28849651520545,2048.465980872394,480,2160L 1920 2160 L 1920 -1080 Z" fill="url(&quot;#SvgjsLinearGradient1414&quot;)"/><path d="M960,-1080C956.4993400792545,-988.3332492090086,932.0684897882708,-705.0075706902461,938.996040475527,-529.9994952540515C945.9235911627833,-354.9914198178568,989.7016288347046,-209.8497041502348,1001.5653041235375,-29.95154738283229C1013.4289794123705,149.94660938457025,1025.832132264488,371.4472782458008,1010.1780922085245,549.3894453503638C994.524052152561,727.3316124549267,920.0321990001574,863.6111260671831,907.6410637877565,1037.701455244545C895.2499285753555,1211.791784421907,927.1047915654115,1406.881662955293,935.8312809341187,1593.9314204145355C944.5577703028259,1780.981177873778,955.9718801556864,2065.655236735756,960,2160L 1920 2160 L 1920 -1080 Z" fill="url(&quot;#SvgjsLinearGradient1415&quot;)"/><path d="M1440,-1080C1433.2103659063716,-974.3415102756599,1400.8717158506206,-665.4453623427272,1399.2621954382294,-446.04906165395937C1397.652675025838,-226.6527609651915,1418.0877021105207,22.656835427742777,1430.342877525653,236.37780413260737C1442.5980529407852,450.098772837472,1466.0260921128013,629.5648045797735,1472.7932479290228,836.2767505752281C1479.5604037452442,1042.9886965706828,1476.411353744486,1256.0289385345397,1470.945812422982,1476.649480105335C1465.4802711014781,1697.2700216761302,1445.1576354038302,2046.1082466842224,1440,2160L 1920 2160 L 1920 -1080 Z" fill="url(&quot;#SvgjsLinearGradient1416&quot;)"/></g></g><defs><linearGradient x1="0.1" y1="0" x2="0" y2="1" id="SvgjsLinearGradient1413"><stop stop-color="#dcdcdc" offset="0"/><stop stop-color="#dcdcdc" offset="0"/></linearGradient><linearGradient x1="0.1" y1="0" x2="0" y2="1" id="SvgjsLinearGradient1414"><stop stop-color="#e5e5e5" offset="0"/><stop stop-color="#e5e5e5" offset="0.25"/></linearGradient><linearGradient x1="0.1" y1="0" x2="0" y2="1" id="SvgjsLinearGradient1415"><stop stop-color="#ededed" offset="0"/><stop stop-color="#ededed" offset="0.5"/></linearGradient><linearGradient x1="0.1" y1="0" x2="0" y2="1" id="SvgjsLinearGradient1416"><stop stop-color="#f6f6f6" offset="0"/><stop stop-color="#f6f6f6" offset="0.75"/></linearGradient><clipPath id="SvgjsClipPath1417"><rect width="1920" height="1080"/></clipPath></defs></svg>